<?xml version="1.0" encoding="UTF-8"?>
<svg xmlns="http://www.w3.org/2000/svg" xmlns:xlink="http://www.w3.org/1999/xlink" width="131px" height="150px" viewBox="0 0 131 149" version="1.1">
<g id="surface1">
<path style=" stroke:none;fill-rule:nonzero;fill:rgb(72.941176%,24.705882%,21.960784%);fill-opacity:1;" d="M 112.285156 9.3125 L 18.714844 9.3125 C 8.378906 9.3125 0 17.648438 0 27.9375 L 0 121.0625 C 0 131.351562 8.378906 139.6875 18.714844 139.6875 L 112.285156 139.6875 C 122.621094 139.6875 131 131.351562 131 121.0625 L 131 27.9375 C 131 17.648438 122.609375 9.3125 112.285156 9.3125 Z M 102.8125 93.5625 L 99.414062 108.226562 C 98.9375 110.300781 97.105469 111.75 94.957031 111.75 C 58.085938 111.75 28.082031 81.890625 28.082031 45.164062 C 28.082031 43.03125 29.539062 41.210938 31.625 40.738281 L 46.355469 37.351562 C 48.503906 36.855469 50.707031 37.964844 51.597656 39.988281 L 58.402344 55.785156 C 59.199219 57.644531 58.660156 59.808594 57.089844 61.085938 L 49.210938 67.515625 C 54.179688 77.585938 62.414062 85.777344 72.539062 90.722656 L 78.976562 82.894531 C 80.246094 81.324219 82.441406 80.78125 84.3125 81.589844 L 100.171875 88.355469 C 102.199219 89.226562 103.308594 91.4375 102.8125 93.5625 Z M 102.8125 93.5625 "/>
</g>
</svg>
