<?xml version="1.0" encoding="UTF-8"?>
<svg xmlns="http://www.w3.org/2000/svg" xmlns:xlink="http://www.w3.org/1999/xlink" width="20px" height="32px" viewBox="0 0 20 32" version="1.1">
<g id="surface1">
<path style=" stroke:none;fill-rule:nonzero;fill:rgb(72.941176%,24.705882%,21.960784%);fill-opacity:1;" d="M 19.414062 22.585938 C 20.195312 23.367188 20.195312 24.632812 19.414062 25.414062 C 19.023438 25.804688 18.511719 26 18 26 C 17.488281 26 16.976562 25.804688 16.585938 25.414062 L 10 18.832031 L 3.414062 25.414062 C 3.023438 25.804688 2.511719 26 2 26 C 1.488281 26 0.976562 25.804688 0.585938 25.414062 C -0.195312 24.632812 -0.195312 23.367188 0.585938 22.585938 L 7.171875 15.996094 L 0.585938 9.414062 C -0.195312 8.632812 -0.195312 7.367188 0.585938 6.585938 C 1.367188 5.804688 2.632812 5.804688 3.414062 6.585938 L 10 13.175781 L 16.585938 6.585938 C 17.367188 5.804688 18.632812 5.804688 19.414062 6.585938 C 20.195312 7.367188 20.195312 8.632812 19.414062 9.414062 L 12.828125 16.003906 Z M 19.414062 22.585938 "/>
</g>
</svg>
